<svg width="56" height="56" viewBox="0 0 56 56" fill="none" xmlns="http://www.w3.org/2000/svg">
<rect width="56" height="56" rx="8" fill="white"/>
<g clip-path="url(#clip0_268_797)">
<path d="M27.5401 27.2812L14.1201 41.3413C14.2742 41.873 14.5469 42.3629 14.9177 42.7741C15.2885 43.1852 15.7478 43.5068 16.2609 43.7148C16.774 43.9227 17.3276 44.0116 17.8801 43.9746C18.4325 43.9376 18.9693 43.7757 19.4501 43.5013L34.5501 34.9012L27.5401 27.2812Z" fill="#EA4335"/>
<path d="M41.1105 24.8884L34.5805 21.1484L27.2305 27.5984L34.6105 34.8784L41.0905 31.1784C41.5043 30.9633 41.8716 30.6686 42.1712 30.3111C42.4708 29.9536 42.6968 29.5404 42.8362 29.0952C42.9756 28.6501 43.0256 28.1818 42.9834 27.7173C42.9413 27.2528 42.8077 26.8012 42.5905 26.3884C42.2515 25.7499 41.729 25.2274 41.0905 24.8884H41.1105Z" fill="#FBBC04"/>
<path d="M14.12 14.6602C14.0402 14.9603 13.9998 15.2696 14 15.5802V40.4202C13.9998 40.7307 14.0402 41.04 14.12 41.3402L28 27.6402L14.12 14.6602Z" fill="#4285F4"/>
<path d="M27.6401 28L34.5801 21.15L19.5001 12.51C18.9326 12.1782 18.2875 12.0022 17.6301 12C16.8361 11.9984 16.0633 12.2565 15.4296 12.735C14.7959 13.2134 14.3361 13.8859 14.1201 14.65L27.6401 28Z" fill="#34A853"/>
</g>
<defs>
<clipPath id="clip0_268_797">
<rect width="28.99" height="31.99" fill="white" transform="translate(14 12)"/>
</clipPath>
</defs>
</svg>
