<svg width="56" height="56" viewBox="0 0 56 56" fill="none" xmlns="http://www.w3.org/2000/svg">
<rect width="56" height="56" rx="8" fill="white"/>
<path fill-rule="evenodd" clip-rule="evenodd" d="M22.2764 17.1813C23.4202 17.1813 24.5314 17.3792 25.6091 17.7745C26.7121 18.1496 27.6851 18.7236 28.5246 19.4964C29.3661 20.2493 30.0398 21.1889 30.5463 22.312C31.0558 23.4201 31.3077 24.7111 31.3077 26.1802C31.3077 27.6046 31.0657 28.8715 30.5796 29.9777L30.5804 29.9785C30.1175 31.0806 29.4765 32.0205 28.6579 32.7949C27.8396 33.5689 26.8778 34.1547 25.7749 34.5517C24.6732 34.9483 23.4956 35.1466 22.2439 35.1466H17.014V40.7992H12.4004V17.1813H22.2764ZM17.014 30.8256H22.0813C22.8656 30.8256 23.5237 30.6979 24.0601 30.4504L24.0625 30.4496C24.6275 30.1984 25.0834 29.8656 25.4338 29.4534L25.437 29.4495C25.8108 29.0341 26.0927 28.545 26.2809 27.9806C26.4701 27.4129 26.5648 26.8234 26.5648 26.2127C26.5648 25.6889 26.4807 25.1523 26.3118 24.6034V24.6018C26.1448 24.038 25.8728 23.5262 25.4965 23.0663C25.1226 22.6094 24.6433 22.2332 24.0554 21.9393C23.4764 21.6499 22.7766 21.5015 21.9512 21.5015H17.014V30.8256ZM23.911 30.6891C23.9037 30.6919 23.8962 30.6943 23.8888 30.6971C23.9708 30.6662 24.0509 30.6337 24.1283 30.5979L23.911 30.6891ZM26.2285 28.5421C26.2422 28.5132 26.2575 28.485 26.2706 28.4557L26.2817 28.4295C26.265 28.4677 26.2462 28.5047 26.2285 28.5421Z" fill="#141415"/>
<path d="M43.6004 40.7992H38.9551V23.5811H43.6004V40.7992Z" fill="#141415"/>
<path d="M43.6004 19.8446H38.9551V15.1992H43.6004V19.8446Z" fill="#141415"/>
</svg>
