<svg width="56" height="56" viewBox="0 0 56 56" fill="none" xmlns="http://www.w3.org/2000/svg">
<rect width="56" height="56" rx="8" fill="white"/>
<path d="M41.1058 20.7249C40.9063 20.8796 37.3844 22.8641 37.3844 27.2769C37.3844 32.3809 41.8659 34.1866 42 34.2313C41.9794 34.3414 41.2881 36.7042 39.6371 39.1118C38.1651 41.2304 36.6277 43.3457 34.2889 43.3457C31.9501 43.3457 31.3482 41.9871 28.6483 41.9871C26.0172 41.9871 25.0817 43.3904 22.9424 43.3904C20.8031 43.3904 19.3104 41.4299 17.5942 39.0224C15.6062 36.1952 14 31.8031 14 27.6346C14 20.9484 18.3474 17.4024 22.626 17.4024C24.8994 17.4024 26.7945 18.8951 28.2218 18.8951C29.5804 18.8951 31.6991 17.313 34.2855 17.313C35.2657 17.313 38.7876 17.4024 41.1058 20.7249ZM33.0576 14.4824C34.1273 13.2132 34.8839 11.4523 34.8839 9.69132C34.8839 9.44712 34.8633 9.19948 34.8186 9C33.0782 9.06535 31.0077 10.1591 29.7592 11.6071C28.779 12.7214 27.8641 14.4824 27.8641 16.2674C27.8641 16.5357 27.9089 16.804 27.9295 16.8899C28.0396 16.9106 28.2184 16.9347 28.3973 16.9347C29.9587 16.9347 31.9226 15.8891 33.0576 14.4824Z" fill="black"/>
</svg>
