<svg preserveAspectRatio="none" width="100%" height="100%" overflow="visible" style="display: block;" viewBox="0 0 24.6141 24.6154" fill="none" xmlns="http://www.w3.org/2000/svg">
<path id="Vector" d="M24.0991 6.12725L18.4869 0.515011C18.3236 0.351734 18.1298 0.222214 17.9165 0.133848C17.7032 0.0454816 17.4745 0 17.2436 0C17.0127 0 16.7841 0.0454816 16.5708 0.133848C16.3574 0.222214 16.1636 0.351734 16.0004 0.515011L0.514888 16.0017C0.351298 16.1648 0.221584 16.3585 0.133216 16.5719C0.0448483 16.7853 -0.000425561 17.014 3.0145e-06 17.245V22.8572C3.0145e-06 23.3235 0.185235 23.7707 0.514951 24.1004C0.844667 24.4301 1.29186 24.6154 1.75815 24.6154H7.37039C7.60134 24.6158 7.83009 24.5705 8.04347 24.4822C8.25684 24.3938 8.45062 24.2641 8.61365 24.1005L24.0991 8.61377C24.2624 8.45051 24.3919 8.25669 24.4803 8.04337C24.5686 7.83005 24.6141 7.60141 24.6141 7.37051C24.6141 7.13962 24.5686 6.91098 24.4803 6.69766C24.3919 6.48434 24.2624 6.29052 24.0991 6.12725ZM7.54746 23.0343C7.50057 23.0815 7.43689 23.1081 7.37039 23.1084H1.75815C1.69153 23.1084 1.62765 23.0819 1.58055 23.0348C1.53344 22.9877 1.50698 22.9239 1.50698 22.8572V17.245C1.50726 17.1785 1.53391 17.1148 1.58108 17.0679L12.8093 5.83842L18.7757 11.8061L7.54746 23.0343ZM23.0329 7.54884L19.8419 10.7399L13.8755 4.77348L17.0665 1.5812C17.0899 1.55785 17.1176 1.53932 17.1481 1.52668C17.1786 1.51404 17.2112 1.50754 17.2442 1.50754C17.2773 1.50754 17.3099 1.51404 17.3404 1.52668C17.3709 1.53932 17.3986 1.55785 17.4219 1.5812L23.0329 7.19344C23.0563 7.21677 23.0748 7.24447 23.0874 7.27496C23.1001 7.30545 23.1066 7.33813 23.1066 7.37114C23.1066 7.40415 23.1001 7.43683 23.0874 7.46732C23.0748 7.49781 23.0563 7.52551 23.0329 7.54884Z" fill="var(--fill-0, white)"/>
</svg>
