<svg preserveAspectRatio="none" width="100%" height="100%" overflow="visible" style="display: block;" viewBox="0 0 23.4 19.2" fill="none" xmlns="http://www.w3.org/2000/svg">
<g id="Union">
<path fill-rule="evenodd" clip-rule="evenodd" d="M7.40701 1.48653C8.26487 1.48653 9.09827 1.63499 9.90654 1.93148C10.7338 2.21276 11.4635 2.64326 12.0932 3.2229C12.7243 3.78757 13.2296 4.49225 13.6095 5.33462C13.9916 6.16569 14.1805 7.13388 14.1805 8.23571C14.1805 9.30407 13.999 10.2542 13.6344 11.0839L13.635 11.0845C13.2878 11.911 12.8071 12.6159 12.1931 13.1968C11.5794 13.7772 10.858 14.2166 10.0309 14.5144C9.20461 14.8118 8.32142 14.9605 7.38262 14.9605H3.46021V19.2H0V1.48653H7.40701ZM3.46021 11.7198H7.26067C7.84889 11.7198 8.34249 11.624 8.74481 11.4384L8.7466 11.4378C9.17036 11.2494 9.51227 10.9998 9.77508 10.6907L9.77746 10.6877C10.0578 10.3761 10.2692 10.0094 10.4104 9.58602C10.5523 9.16024 10.6233 8.71816 10.6233 8.2601C10.6233 7.86724 10.5602 7.46482 10.4336 7.05315V7.05196C10.3083 6.62909 10.1043 6.24525 9.82208 5.90033C9.54166 5.55767 9.18216 5.2755 8.74124 5.05504C8.30703 4.83798 7.78215 4.72669 7.16312 4.72669H3.46021V11.7198ZM8.63298 11.6174C8.62748 11.6195 8.62185 11.6213 8.61632 11.6234C8.67782 11.6003 8.73785 11.5759 8.79597 11.549L8.63298 11.6174ZM10.3711 10.0072C10.3813 9.9855 10.3928 9.96435 10.4026 9.94234L10.411 9.92271C10.3984 9.95133 10.3844 9.9791 10.3711 10.0072Z" fill="var(--fill-0, #141415)"/>
<path d="M23.4 19.2H19.916V6.28638H23.4V19.2Z" fill="var(--fill-0, #141415)"/>
<path d="M23.4 3.48404H19.916V0H23.4V3.48404Z" fill="var(--fill-0, #141415)"/>
</g>
</svg>
