<svg preserveAspectRatio="none" width="100%" height="100%" overflow="visible" style="display: block;" viewBox="0 0 10.5 10.5" fill="none" xmlns="http://www.w3.org/2000/svg">
<g id="Group 6817">
<path id="Union" d="M10.5 5.25C10.5 8.14938 8.14938 10.5 5.25 10.5C3.47358 10.5 1.90449 9.61705 0.954922 8.26805V9.21054H0V6.61195H2.59859V7.56688H1.63279C2.39699 8.75746 3.73175 9.54508 5.25 9.54508C7.62222 9.54508 9.54508 7.62222 9.54508 5.25H10.5Z" fill="var(--fill-0, #A2A2A5)"/>
<path id="Union_2" d="M5.25 0C7.0262 0 8.59538 0.882635 9.54508 2.23143V1.23974H10.5V3.83833H7.90141V2.88341H8.8351C8.06597 1.72067 6.74709 0.954922 5.25 0.954922C2.87778 0.954922 0.954922 2.87778 0.954922 5.25H0C0 2.35062 2.35062 0 5.25 0Z" fill="var(--fill-0, #A2A2A5)"/>
</g>
</svg>
