<svg width="29" height="32" viewBox="0 0 29 32" fill="none" xmlns="http://www.w3.org/2000/svg">
<g clip-path="url(#clip0_251_2512)">
<path d="M13.5401 15.2812L0.120117 29.3413C0.274189 29.873 0.546899 30.3629 0.917715 30.7741C1.28853 31.1852 1.74779 31.5068 2.26091 31.7148C2.77403 31.9227 3.32764 32.0116 3.88005 31.9746C4.43247 31.9376 4.9693 31.7757 5.45012 31.5013L20.5501 22.9012L13.5401 15.2812Z" fill="#EA4335"/>
<path d="M27.11 12.8884L20.58 9.14844L13.23 15.5984L20.61 22.8784L27.09 19.1784C27.5039 18.9633 27.8711 18.6686 28.1707 18.3111C28.4703 17.9536 28.6963 17.5404 28.8357 17.0952C28.9751 16.6501 29.0251 16.1818 28.983 15.7173C28.9408 15.2528 28.8072 14.8012 28.59 14.3884C28.251 13.7499 27.7285 13.2274 27.09 12.8884H27.11Z" fill="#FBBC04"/>
<path d="M0.120001 2.66016C0.0401521 2.9603 -0.000188471 3.26958 6.61955e-07 3.58016V28.4202C-0.000188471 28.7307 0.0401521 29.04 0.120001 29.3402L14 15.6402L0.120001 2.66016Z" fill="#4285F4"/>
<path d="M13.6401 16L20.5801 9.15001L5.50012 0.510007C4.93262 0.17819 4.2875 0.00224921 3.63012 7.15214e-06C2.8361 -0.00156636 2.06334 0.256535 1.42965 0.734967C0.795948 1.2134 0.336072 1.88592 0.120117 2.65001L13.6401 16Z" fill="#34A853"/>
</g>
<defs>
<clipPath id="clip0_251_2512">
<rect width="28.99" height="31.99" fill="white"/>
</clipPath>
</defs>
</svg>
